<svg id="visual" viewBox="0 0 960 540" width="960" height="540" xmlns="http://www.w3.org/2000/svg" xmlns:xlink="http://www.w3.org/1999/xlink" version="1.1"><rect x="0" y="0" width="960" height="540" fill="#062100"></rect><path d="M0 435L16 440.2C32 445.3 64 455.7 96 447C128 438.3 160 410.7 192 395.2C224 379.7 256 376.3 288 376C320 375.7 352 378.3 384 392.3C416 406.3 448 431.7 480 430C512 428.3 544 399.7 576 398.8C608 398 640 425 672 439.2C704 453.3 736 454.7 768 448.8C800 443 832 430 864 411.2C896 392.3 928 367.7 944 355.3L960 343L960 541L944 541C928 541 896 541 864 541C832 541 800 541 768 541C736 541 704 541 672 541C640 541 608 541 576 541C544 541 512 541 480 541C448 541 416 541 384 541C352 541 320 541 288 541C256 541 224 541 192 541C160 541 128 541 96 541C64 541 32 541 16 541L0 541Z" fill="#3F7D20" stroke-linecap="round" stroke-linejoin="miter"></path></svg>